<mxfile host="app.diagrams.net" modified="2021-10-05T12:01:37.585Z" agent="5.0 (Windows NT 10.0; Win64; x64) AppleWebKit/537.36 (KHTML, like Gecko) Chrome/94.0.4606.71 Safari/537.36" etag="wt29r05mZxOamYAcGJxG" version="15.2.1" type="github">
  <diagram id="C5RBs43oDa-KdzZeNtuy" name="Page-1">
    <mxGraphModel dx="936" dy="584" grid="1" gridSize="10" guides="1" tooltips="1" connect="1" arrows="1" fold="1" page="1" pageScale="1" pageWidth="827" pageHeight="1169" math="0" shadow="0">
      <root>
        <mxCell id="WIyWlLk6GJQsqaUBKTNV-0" />
        <mxCell id="WIyWlLk6GJQsqaUBKTNV-1" parent="WIyWlLk6GJQsqaUBKTNV-0" />
        <mxCell id="TQvlU_hx5y4wcU5LANcY-45" value="" style="rounded=0;whiteSpace=wrap;html=1;dashed=1;" vertex="1" parent="WIyWlLk6GJQsqaUBKTNV-1">
          <mxGeometry x="450" y="150" width="340" height="330" as="geometry" />
        </mxCell>
        <mxCell id="TQvlU_hx5y4wcU5LANcY-12" value="" style="rounded=0;whiteSpace=wrap;html=1;dashed=1;" vertex="1" parent="WIyWlLk6GJQsqaUBKTNV-1">
          <mxGeometry x="110" y="140" width="230" height="350" as="geometry" />
        </mxCell>
        <mxCell id="TQvlU_hx5y4wcU5LANcY-14" style="edgeStyle=orthogonalEdgeStyle;rounded=0;orthogonalLoop=1;jettySize=auto;html=1;exitX=0.5;exitY=1;exitDx=0;exitDy=0;entryX=0.5;entryY=0;entryDx=0;entryDy=0;" edge="1" parent="WIyWlLk6GJQsqaUBKTNV-1" source="WIyWlLk6GJQsqaUBKTNV-3" target="TQvlU_hx5y4wcU5LANcY-0">
          <mxGeometry relative="1" as="geometry" />
        </mxCell>
        <mxCell id="WIyWlLk6GJQsqaUBKTNV-3" value="인터넷에서 설치 파일 다운로드" style="rounded=1;whiteSpace=wrap;html=1;fontSize=12;glass=0;strokeWidth=1;shadow=0;" parent="WIyWlLk6GJQsqaUBKTNV-1" vertex="1">
          <mxGeometry x="160" y="80" width="120" height="40" as="geometry" />
        </mxCell>
        <mxCell id="TQvlU_hx5y4wcU5LANcY-3" style="edgeStyle=orthogonalEdgeStyle;rounded=0;orthogonalLoop=1;jettySize=auto;html=1;exitX=0.5;exitY=1;exitDx=0;exitDy=0;entryX=0.5;entryY=0;entryDx=0;entryDy=0;" edge="1" parent="WIyWlLk6GJQsqaUBKTNV-1" source="TQvlU_hx5y4wcU5LANcY-0" target="TQvlU_hx5y4wcU5LANcY-2">
          <mxGeometry relative="1" as="geometry" />
        </mxCell>
        <mxCell id="TQvlU_hx5y4wcU5LANcY-0" value="대상 서버 접속" style="rounded=1;whiteSpace=wrap;html=1;fontSize=12;glass=0;strokeWidth=1;shadow=0;" vertex="1" parent="WIyWlLk6GJQsqaUBKTNV-1">
          <mxGeometry x="160" y="150" width="120" height="40" as="geometry" />
        </mxCell>
        <mxCell id="TQvlU_hx5y4wcU5LANcY-4" style="edgeStyle=orthogonalEdgeStyle;rounded=0;orthogonalLoop=1;jettySize=auto;html=1;exitX=1;exitY=0.5;exitDx=0;exitDy=0;entryX=1;entryY=0.5;entryDx=0;entryDy=0;" edge="1" parent="WIyWlLk6GJQsqaUBKTNV-1" source="TQvlU_hx5y4wcU5LANcY-2" target="TQvlU_hx5y4wcU5LANcY-0">
          <mxGeometry relative="1" as="geometry" />
        </mxCell>
        <mxCell id="TQvlU_hx5y4wcU5LANcY-6" style="edgeStyle=orthogonalEdgeStyle;rounded=0;orthogonalLoop=1;jettySize=auto;html=1;exitX=0.5;exitY=1;exitDx=0;exitDy=0;" edge="1" parent="WIyWlLk6GJQsqaUBKTNV-1" source="TQvlU_hx5y4wcU5LANcY-2" target="TQvlU_hx5y4wcU5LANcY-5">
          <mxGeometry relative="1" as="geometry" />
        </mxCell>
        <mxCell id="TQvlU_hx5y4wcU5LANcY-2" value="접속 완료?" style="rhombus;whiteSpace=wrap;html=1;" vertex="1" parent="WIyWlLk6GJQsqaUBKTNV-1">
          <mxGeometry x="160" y="220" width="120" height="60" as="geometry" />
        </mxCell>
        <mxCell id="TQvlU_hx5y4wcU5LANcY-11" style="edgeStyle=orthogonalEdgeStyle;rounded=0;orthogonalLoop=1;jettySize=auto;html=1;exitX=0.5;exitY=1;exitDx=0;exitDy=0;entryX=0.5;entryY=0;entryDx=0;entryDy=0;" edge="1" parent="WIyWlLk6GJQsqaUBKTNV-1" source="TQvlU_hx5y4wcU5LANcY-5" target="TQvlU_hx5y4wcU5LANcY-9">
          <mxGeometry relative="1" as="geometry" />
        </mxCell>
        <mxCell id="TQvlU_hx5y4wcU5LANcY-5" value="서버로 파일 업로드" style="rounded=1;whiteSpace=wrap;html=1;fontSize=12;glass=0;strokeWidth=1;shadow=0;" vertex="1" parent="WIyWlLk6GJQsqaUBKTNV-1">
          <mxGeometry x="160" y="310" width="120" height="40" as="geometry" />
        </mxCell>
        <mxCell id="TQvlU_hx5y4wcU5LANcY-7" value="No" style="text;html=1;align=center;verticalAlign=middle;resizable=0;points=[];autosize=1;strokeColor=none;fillColor=none;" vertex="1" parent="WIyWlLk6GJQsqaUBKTNV-1">
          <mxGeometry x="300" y="200" width="30" height="20" as="geometry" />
        </mxCell>
        <mxCell id="TQvlU_hx5y4wcU5LANcY-8" value="Yes" style="text;html=1;align=center;verticalAlign=middle;resizable=0;points=[];autosize=1;strokeColor=none;fillColor=none;" vertex="1" parent="WIyWlLk6GJQsqaUBKTNV-1">
          <mxGeometry x="220" y="281" width="40" height="20" as="geometry" />
        </mxCell>
        <mxCell id="TQvlU_hx5y4wcU5LANcY-20" style="edgeStyle=orthogonalEdgeStyle;rounded=0;orthogonalLoop=1;jettySize=auto;html=1;exitX=0.5;exitY=1;exitDx=0;exitDy=0;entryX=0.5;entryY=0;entryDx=0;entryDy=0;" edge="1" parent="WIyWlLk6GJQsqaUBKTNV-1" source="TQvlU_hx5y4wcU5LANcY-9" target="TQvlU_hx5y4wcU5LANcY-18">
          <mxGeometry relative="1" as="geometry" />
        </mxCell>
        <mxCell id="TQvlU_hx5y4wcU5LANcY-9" value="패키지 설치" style="rounded=1;whiteSpace=wrap;html=1;fontSize=12;glass=0;strokeWidth=1;shadow=0;" vertex="1" parent="WIyWlLk6GJQsqaUBKTNV-1">
          <mxGeometry x="160" y="370" width="120" height="40" as="geometry" />
        </mxCell>
        <mxCell id="TQvlU_hx5y4wcU5LANcY-19" value="" style="group" vertex="1" connectable="0" parent="WIyWlLk6GJQsqaUBKTNV-1">
          <mxGeometry x="200" y="430" width="40" height="40" as="geometry" />
        </mxCell>
        <mxCell id="TQvlU_hx5y4wcU5LANcY-17" value="" style="ellipse;whiteSpace=wrap;html=1;aspect=fixed;" vertex="1" parent="TQvlU_hx5y4wcU5LANcY-19">
          <mxGeometry width="40" height="40" as="geometry" />
        </mxCell>
        <mxCell id="TQvlU_hx5y4wcU5LANcY-18" value="" style="ellipse;whiteSpace=wrap;html=1;aspect=fixed;fillColor=#000000;" vertex="1" parent="TQvlU_hx5y4wcU5LANcY-19">
          <mxGeometry x="5" y="5" width="30" height="30" as="geometry" />
        </mxCell>
        <mxCell id="TQvlU_hx5y4wcU5LANcY-21" value="N회 수행" style="text;html=1;strokeColor=none;fillColor=none;align=center;verticalAlign=middle;whiteSpace=wrap;rounded=0;" vertex="1" parent="WIyWlLk6GJQsqaUBKTNV-1">
          <mxGeometry x="50" y="290" width="60" height="20" as="geometry" />
        </mxCell>
        <mxCell id="TQvlU_hx5y4wcU5LANcY-29" style="edgeStyle=orthogonalEdgeStyle;rounded=0;orthogonalLoop=1;jettySize=auto;html=1;exitX=0.5;exitY=1;exitDx=0;exitDy=0;entryX=0.5;entryY=0;entryDx=0;entryDy=0;" edge="1" parent="WIyWlLk6GJQsqaUBKTNV-1" source="TQvlU_hx5y4wcU5LANcY-23" target="TQvlU_hx5y4wcU5LANcY-28">
          <mxGeometry relative="1" as="geometry" />
        </mxCell>
        <mxCell id="TQvlU_hx5y4wcU5LANcY-23" value="&amp;nbsp;IOPS R+ 접속" style="rounded=1;whiteSpace=wrap;html=1;fontSize=12;glass=0;strokeWidth=1;shadow=0;" vertex="1" parent="WIyWlLk6GJQsqaUBKTNV-1">
          <mxGeometry x="560" y="80" width="120" height="40" as="geometry" />
        </mxCell>
        <mxCell id="TQvlU_hx5y4wcU5LANcY-30" value="" style="group" vertex="1" connectable="0" parent="WIyWlLk6GJQsqaUBKTNV-1">
          <mxGeometry x="470" y="160" width="300" height="70" as="geometry" />
        </mxCell>
        <mxCell id="TQvlU_hx5y4wcU5LANcY-28" value="" style="rounded=0;whiteSpace=wrap;html=1;fillColor=#FFFFFF;" vertex="1" parent="TQvlU_hx5y4wcU5LANcY-30">
          <mxGeometry width="300" height="70" as="geometry" />
        </mxCell>
        <mxCell id="TQvlU_hx5y4wcU5LANcY-25" value="OS 커널 업데이트" style="rounded=1;whiteSpace=wrap;html=1;fontSize=12;glass=0;strokeWidth=1;shadow=0;" vertex="1" parent="TQvlU_hx5y4wcU5LANcY-30">
          <mxGeometry x="20" y="15" width="120" height="40" as="geometry" />
        </mxCell>
        <mxCell id="TQvlU_hx5y4wcU5LANcY-26" value="OS 백업 설치/설정" style="rounded=1;whiteSpace=wrap;html=1;fontSize=12;glass=0;strokeWidth=1;shadow=0;" vertex="1" parent="TQvlU_hx5y4wcU5LANcY-30">
          <mxGeometry x="160" y="15" width="120" height="40" as="geometry" />
        </mxCell>
        <mxCell id="TQvlU_hx5y4wcU5LANcY-31" value="스크립트 선택" style="text;html=1;align=center;verticalAlign=middle;resizable=0;points=[];autosize=1;strokeColor=none;fillColor=none;" vertex="1" parent="WIyWlLk6GJQsqaUBKTNV-1">
          <mxGeometry x="630" y="130" width="90" height="20" as="geometry" />
        </mxCell>
        <mxCell id="TQvlU_hx5y4wcU5LANcY-37" style="edgeStyle=orthogonalEdgeStyle;rounded=0;orthogonalLoop=1;jettySize=auto;html=1;exitX=0.5;exitY=1;exitDx=0;exitDy=0;entryX=0;entryY=0.5;entryDx=0;entryDy=0;" edge="1" parent="WIyWlLk6GJQsqaUBKTNV-1" source="TQvlU_hx5y4wcU5LANcY-32" target="TQvlU_hx5y4wcU5LANcY-36">
          <mxGeometry relative="1" as="geometry">
            <Array as="points">
              <mxPoint x="550" y="321" />
            </Array>
          </mxGeometry>
        </mxCell>
        <mxCell id="TQvlU_hx5y4wcU5LANcY-32" value="변수 입력&lt;br&gt;(커널 버전)" style="rounded=1;whiteSpace=wrap;html=1;fontSize=12;glass=0;strokeWidth=1;shadow=0;" vertex="1" parent="WIyWlLk6GJQsqaUBKTNV-1">
          <mxGeometry x="490" y="241" width="120" height="40" as="geometry" />
        </mxCell>
        <mxCell id="TQvlU_hx5y4wcU5LANcY-38" style="edgeStyle=orthogonalEdgeStyle;rounded=0;orthogonalLoop=1;jettySize=auto;html=1;exitX=0.5;exitY=1;exitDx=0;exitDy=0;entryX=1;entryY=0.5;entryDx=0;entryDy=0;" edge="1" parent="WIyWlLk6GJQsqaUBKTNV-1" source="TQvlU_hx5y4wcU5LANcY-33" target="TQvlU_hx5y4wcU5LANcY-36">
          <mxGeometry relative="1" as="geometry" />
        </mxCell>
        <mxCell id="TQvlU_hx5y4wcU5LANcY-33" value="변수 입력&lt;br&gt;(nas 정보)" style="rounded=1;whiteSpace=wrap;html=1;fontSize=12;glass=0;strokeWidth=1;shadow=0;" vertex="1" parent="WIyWlLk6GJQsqaUBKTNV-1">
          <mxGeometry x="630" y="241" width="120" height="40" as="geometry" />
        </mxCell>
        <mxCell id="TQvlU_hx5y4wcU5LANcY-34" style="edgeStyle=orthogonalEdgeStyle;rounded=0;orthogonalLoop=1;jettySize=auto;html=1;exitX=0.5;exitY=1;exitDx=0;exitDy=0;entryX=0.5;entryY=0;entryDx=0;entryDy=0;" edge="1" parent="WIyWlLk6GJQsqaUBKTNV-1" source="TQvlU_hx5y4wcU5LANcY-25" target="TQvlU_hx5y4wcU5LANcY-32">
          <mxGeometry relative="1" as="geometry" />
        </mxCell>
        <mxCell id="TQvlU_hx5y4wcU5LANcY-35" style="edgeStyle=orthogonalEdgeStyle;rounded=0;orthogonalLoop=1;jettySize=auto;html=1;exitX=0.5;exitY=1;exitDx=0;exitDy=0;entryX=0.5;entryY=0;entryDx=0;entryDy=0;" edge="1" parent="WIyWlLk6GJQsqaUBKTNV-1" source="TQvlU_hx5y4wcU5LANcY-26" target="TQvlU_hx5y4wcU5LANcY-33">
          <mxGeometry relative="1" as="geometry" />
        </mxCell>
        <mxCell id="TQvlU_hx5y4wcU5LANcY-43" style="edgeStyle=orthogonalEdgeStyle;rounded=0;orthogonalLoop=1;jettySize=auto;html=1;exitX=0.5;exitY=1;exitDx=0;exitDy=0;" edge="1" parent="WIyWlLk6GJQsqaUBKTNV-1" source="TQvlU_hx5y4wcU5LANcY-36" target="TQvlU_hx5y4wcU5LANcY-39">
          <mxGeometry relative="1" as="geometry" />
        </mxCell>
        <mxCell id="TQvlU_hx5y4wcU5LANcY-36" value="수행 대상 선택" style="rounded=1;whiteSpace=wrap;html=1;fontSize=12;glass=0;strokeWidth=1;shadow=0;" vertex="1" parent="WIyWlLk6GJQsqaUBKTNV-1">
          <mxGeometry x="570" y="301" width="100" height="40" as="geometry" />
        </mxCell>
        <mxCell id="TQvlU_hx5y4wcU5LANcY-44" style="edgeStyle=orthogonalEdgeStyle;rounded=0;orthogonalLoop=1;jettySize=auto;html=1;exitX=0.5;exitY=1;exitDx=0;exitDy=0;entryX=0.5;entryY=0;entryDx=0;entryDy=0;" edge="1" parent="WIyWlLk6GJQsqaUBKTNV-1" source="TQvlU_hx5y4wcU5LANcY-39" target="TQvlU_hx5y4wcU5LANcY-41">
          <mxGeometry relative="1" as="geometry" />
        </mxCell>
        <mxCell id="TQvlU_hx5y4wcU5LANcY-39" value="실행 및 결과 확인" style="rounded=1;whiteSpace=wrap;html=1;fontSize=12;glass=0;strokeWidth=1;shadow=0;" vertex="1" parent="WIyWlLk6GJQsqaUBKTNV-1">
          <mxGeometry x="570" y="360" width="100" height="40" as="geometry" />
        </mxCell>
        <mxCell id="TQvlU_hx5y4wcU5LANcY-40" value="" style="group" vertex="1" connectable="0" parent="WIyWlLk6GJQsqaUBKTNV-1">
          <mxGeometry x="600" y="420" width="40" height="40" as="geometry" />
        </mxCell>
        <mxCell id="TQvlU_hx5y4wcU5LANcY-41" value="" style="ellipse;whiteSpace=wrap;html=1;aspect=fixed;" vertex="1" parent="TQvlU_hx5y4wcU5LANcY-40">
          <mxGeometry width="40" height="40" as="geometry" />
        </mxCell>
        <mxCell id="TQvlU_hx5y4wcU5LANcY-42" value="" style="ellipse;whiteSpace=wrap;html=1;aspect=fixed;fillColor=#000000;" vertex="1" parent="TQvlU_hx5y4wcU5LANcY-40">
          <mxGeometry x="5" y="5" width="30" height="30" as="geometry" />
        </mxCell>
        <mxCell id="TQvlU_hx5y4wcU5LANcY-47" value="1회 수행" style="text;html=1;strokeColor=none;fillColor=none;align=center;verticalAlign=middle;whiteSpace=wrap;rounded=0;" vertex="1" parent="WIyWlLk6GJQsqaUBKTNV-1">
          <mxGeometry x="390" y="290" width="60" height="20" as="geometry" />
        </mxCell>
      </root>
    </mxGraphModel>
  </diagram>
</mxfile>
